<?xml version="1.0" encoding="UTF-8" standalone="no"?>
<!DOCTYPE svg PUBLIC "-//W3C//DTD SVG 1.1//EN" "http://www.w3.org/Graphics/SVG/1.1/DTD/svg11.dtd">
<svg xmlns="http://www.w3.org/2000/svg" version="1.1" viewBox="0 0 256 256" width="256.0pt" height="256.0pt">
    <path d="M 128.38 6.13 C 128.16 46.53 128.50 86.96 128.21 127.36 C 124.77 125.66 121.42 123.82 118.11 121.88 C 86.50 103.47 54.69 85.39 23.15 66.88 C 58.26 46.73 93.33 26.41 128.38 6.13 Z" fill="#19548f" />
    <path d="M 128.38 6.13 C 163.62 26.27 198.83 46.73 233.97 67.06 C 231.14 68.90 228.21 70.59 225.27 72.26 C 195.05 89.71 164.84 107.16 134.63 124.62 C 132.72 125.72 130.75 126.71 128.81 127.76 L 128.15 128.11 L 128.21 127.36 C 128.50 86.96 128.16 46.53 128.38 6.13 Z" fill="#3b55bf" />
    <path d="M 23.15 66.88 C 54.69 85.39 86.50 103.47 118.11 121.88 C 121.42 123.82 124.77 125.66 128.21 127.36 L 128.15 128.11 C 99.54 144.47 71.05 161.08 42.48 177.51 C 36.03 181.18 29.71 185.19 23.06 188.41 C 23.12 147.98 22.95 107.27 23.15 66.88 Z" fill="#06678f" />
    <path d="M 233.97 67.06 C 233.89 107.70 233.97 148.36 233.94 189.00 C 198.83 168.84 163.80 148.49 128.72 128.28 L 128.81 127.76 C 130.75 126.71 132.72 125.72 134.63 124.62 C 164.84 107.16 195.05 89.71 225.27 72.26 C 228.21 70.59 231.14 68.90 233.97 67.06 Z" fill="#307fea" />
    <path d="M 128.15 128.11 L 128.81 127.76 L 128.72 128.28 C 127.87 135.38 128.41 142.80 128.29 150.00 C 128.33 183.28 128.18 216.59 128.37 249.87 C 93.35 229.50 58.09 209.35 23.09 188.96 L 23.06 188.41 C 29.71 185.19 36.03 181.18 42.48 177.51 C 71.05 161.08 99.54 144.47 128.15 128.11 Z" fill="#005f70" />
    <path d="M 128.72 128.28 C 163.80 148.49 198.83 168.84 233.94 189.00 C 198.78 209.24 163.58 229.79 128.37 249.87 C 128.18 216.59 128.33 183.28 128.29 150.00 C 128.41 142.80 127.87 135.38 128.72 128.28 Z" fill="#00565e" />
</svg>
