<svg version="1.1" xmlns="http://www.w3.org/2000/svg" xmlns:xlink="http://www.w3.org/1999/xlink" viewBox="0 0 192 192"><g fill="none" fill-rule="nonzero" stroke="none" stroke-width="1" stroke-linecap="butt" stroke-linejoin="miter" stroke-miterlimit="10" stroke-dasharray="" stroke-dashoffset="0" font-family="none" font-weight="none" font-size="none" text-anchor="none" style="mix-blend-mode: normal"><path d="M0,192v-192h192v192z" fill="none"></path><g><g id="surface1"><path d="M15,9h114c3.31641,0 6,2.68359 6,6v96c0,3.31641 -2.68359,6 -6,6h-114c-3.31641,0 -6,-2.68359 -6,-6v-96c0,-3.31641 2.68359,-6 6,-6z" fill="#ed7899"></path><path d="M27,57h36v42h-36z" fill="#f9efde"></path><path d="M81,57h36v42h-36z" fill="#f9efde"></path><path d="M63,75h114c3.31641,0 6,2.68359 6,6v96c0,3.31641 -2.68359,6 -6,6h-114c-3.31641,0 -6,-2.68359 -6,-6v-96c0,-3.31641 2.68359,-6 6,-6z" fill="#85cbf8"></path><path d="M183,81v24h-126v-24c0,-3.31641 2.68359,-6 6,-6h114c3.31641,0 6,2.68359 6,6z" fill="#ace3ff"></path><path d="M75,123h36v42h-36z" fill="#f9efde"></path><path d="M129,123h36v42h-36z" fill="#f9efde"></path><path d="M135,15v24h-126v-24c0,-3.31641 2.68359,-6 6,-6h114c3.31641,0 6,2.68359 6,6z" fill="#f283a5"></path><path d="M123,36h-12c-1.65234,0 -3,1.34766 -3,3c0,1.65234 1.34766,3 3,3h12c1.65234,0 3,-1.34766 3,-3c0,-1.65234 -1.34766,-3 -3,-3z" fill="#8d6c9f"></path><path d="M33,18c-1.65234,0 -3,1.34766 -3,3v6c0,1.65234 1.34766,3 3,3c1.65234,0 3,-1.34766 3,-3v-6c0,-1.65234 -1.34766,-3 -3,-3z" fill="#8d6c9f"></path><path d="M18,18c-1.65234,0 -3,1.34766 -3,3v6c0,1.65234 1.34766,3 3,3c1.65234,0 3,-1.34766 3,-3v-6c0,-1.65234 -1.34766,-3 -3,-3z" fill="#8d6c9f"></path><path d="M78,18c-1.65234,0 -3,1.34766 -3,3v6c0,1.65234 1.34766,3 3,3c1.65234,0 3,-1.34766 3,-3v-6c0,-1.65234 -1.34766,-3 -3,-3z" fill="#8d6c9f"></path><path d="M93,18c-1.65234,0 -3,1.34766 -3,3v6c0,1.65234 1.34766,3 3,3c1.65234,0 3,-1.34766 3,-3v-6c0,-1.65234 -1.34766,-3 -3,-3z" fill="#8d6c9f"></path><path d="M108,30c1.65234,0 3,-1.34766 3,-3v-6c0,-1.65234 -1.34766,-3 -3,-3c-1.65234,0 -3,1.34766 -3,3v6c0,1.65234 1.34766,3 3,3z" fill="#8d6c9f"></path><path d="M123,30c1.65234,0 3,-1.34766 3,-3v-6c0,-1.65234 -1.34766,-3 -3,-3c-1.65234,0 -3,1.34766 -3,3v6c0,1.65234 1.34766,3 3,3z" fill="#8d6c9f"></path><path d="M48,18c-1.65234,0 -3,1.34766 -3,3v6c0,1.65234 1.34766,3 3,3c1.65234,0 3,-1.34766 3,-3v-6c0,-1.65234 -1.34766,-3 -3,-3z" fill="#8d6c9f"></path><path d="M63,18c-1.65234,0 -3,1.34766 -3,3v6c0,1.65234 1.34766,3 3,3c1.65234,0 3,-1.34766 3,-3v-6c0,-1.65234 -1.34766,-3 -3,-3z" fill="#8d6c9f"></path><path d="M177,72h-39v-57c0,-4.96875 -4.03125,-9 -9,-9h-114c-4.96875,0 -9,4.03125 -9,9v96c0,4.96875 4.03125,9 9,9h39v57c0,4.96875 4.03125,9 9,9h114c4.96875,0 9,-4.03125 9,-9v-96c0,-4.96875 -4.03125,-9 -9,-9zM54,114h-39c-1.65234,0 -3,-1.34766 -3,-3v-69h87c1.65234,0 3,-1.34766 3,-3c0,-1.65234 -1.34766,-3 -3,-3h-87v-21c0,-1.65234 1.34766,-3 3,-3h114c1.65234,0 3,1.34766 3,3v57h-12v-15c0,-1.65234 -1.34766,-3 -3,-3h-36c-1.65234,0 -3,1.34766 -3,3v15h-12v-15c0,-1.65234 -1.34766,-3 -3,-3h-36c-1.65234,0 -3,1.34766 -3,3v42c0,1.65234 1.34766,3 3,3h27zM114,72h-30v-12h30zM54,81v15h-24v-36h30v12.57422c-3.57422,1.26563 -5.97656,4.62891 -6,8.42578zM180,177c0,1.65234 -1.34766,3 -3,3h-114c-1.65234,0 -3,-1.34766 -3,-3v-69h87c1.65234,0 3,-1.34766 3,-3c0,-1.65234 -1.34766,-3 -3,-3h-87v-21c0,-1.65234 1.34766,-3 3,-3h114c1.65234,0 3,1.34766 3,3z" fill="#8d6c9f"></path><path d="M171,102h-12c-1.65234,0 -3,1.34766 -3,3c0,1.65234 1.34766,3 3,3h12c1.65234,0 3,-1.34766 3,-3c0,-1.65234 -1.34766,-3 -3,-3z" fill="#8d6c9f"></path><path d="M81,84c-1.65234,0 -3,1.34766 -3,3v6c0,1.65234 1.34766,3 3,3c1.65234,0 3,-1.34766 3,-3v-6c0,-1.65234 -1.34766,-3 -3,-3z" fill="#8d6c9f"></path><path d="M66,84c-1.65234,0 -3,1.34766 -3,3v6c0,1.65234 1.34766,3 3,3c1.65234,0 3,-1.34766 3,-3v-6c0,-1.65234 -1.34766,-3 -3,-3z" fill="#8d6c9f"></path><path d="M126,84c-1.65234,0 -3,1.34766 -3,3v6c0,1.65234 1.34766,3 3,3c1.65234,0 3,-1.34766 3,-3v-6c0,-1.65234 -1.34766,-3 -3,-3z" fill="#8d6c9f"></path><path d="M141,84c-1.65234,0 -3,1.34766 -3,3v6c0,1.65234 1.34766,3 3,3c1.65234,0 3,-1.34766 3,-3v-6c0,-1.65234 -1.34766,-3 -3,-3z" fill="#8d6c9f"></path><path d="M156,96c1.65234,0 3,-1.34766 3,-3v-6c0,-1.65234 -1.34766,-3 -3,-3c-1.65234,0 -3,1.34766 -3,3v6c0,1.65234 1.34766,3 3,3z" fill="#8d6c9f"></path><path d="M171,84c-1.65234,0 -3,1.34766 -3,3v6c0,1.65234 1.34766,3 3,3c1.65234,0 3,-1.34766 3,-3v-6c0,-1.65234 -1.34766,-3 -3,-3z" fill="#8d6c9f"></path><path d="M96,84c-1.65234,0 -3,1.34766 -3,3v6c0,1.65234 1.34766,3 3,3c1.65234,0 3,-1.34766 3,-3v-6c0,-1.65234 -1.34766,-3 -3,-3z" fill="#8d6c9f"></path><path d="M111,84c-1.65234,0 -3,1.34766 -3,3v6c0,1.65234 1.34766,3 3,3c1.65234,0 3,-1.34766 3,-3v-6c0,-1.65234 -1.34766,-3 -3,-3z" fill="#8d6c9f"></path><path d="M165,120h-36c-1.65234,0 -3,1.34766 -3,3v42c0,1.65234 1.34766,3 3,3h36c1.65234,0 3,-1.34766 3,-3v-42c0,-1.65234 -1.34766,-3 -3,-3zM162,162h-30v-36h30z" fill="#8d6c9f"></path><path d="M111,120h-36c-1.65234,0 -3,1.34766 -3,3v42c0,1.65234 1.34766,3 3,3h36c1.65234,0 3,-1.34766 3,-3v-42c0,-1.65234 -1.34766,-3 -3,-3zM108,162h-30v-36h30z" fill="#8d6c9f"></path></g></g></g></svg>